<?xml version="1.0" encoding="utf-8"?>
<!-- Generator: Adobe Illustrator 16.0.0, SVG Export Plug-In . SVG Version: 6.00 Build 0)  -->
<!DOCTYPE svg PUBLIC "-//W3C//DTD SVG 1.1//EN" "http://www.w3.org/Graphics/SVG/1.1/DTD/svg11.dtd">
<svg version="1.1" id="Artwork" xmlns="http://www.w3.org/2000/svg" xmlns:xlink="http://www.w3.org/1999/xlink" x="0px" y="0px"
	 width="1200px" height="1165px" viewBox="0 17.5 1200 1165" enable-background="new 0 17.5 1200 1165" xml:space="preserve">
<g>
	<rect y="17.5" fill="#00B1CD" width="1200" height="1182.5"/>
</g>
<rect x="1079.375" y="548.438" fill="#FDC00F" width="18.75" height="154.688"/>
<polygon fill="#FB9101" points="1098.125,571.875 1079.375,571.875 1079.375,581.25 1088.75,590.625 1088.75,703.125 
	1098.125,703.125 "/>
<path fill="none" stroke="#FFFFFF" stroke-width="4.6875" stroke-miterlimit="10" d="M920,768.75v-37.5
	c0-10.355-8.395-18.75-18.75-18.75H807.5c-10.355,0-18.75-8.395-18.75-18.75l0,0c0-10.355,8.395-18.75,18.75-18.75h93.75
	c10.355,0,18.75-8.395,18.75-18.75l0,0c0-10.355-8.395-18.75-18.75-18.75H807.5c-10.355,0-18.75-8.395-18.75-18.75V562.5"/>
<path d="M348.813,206.25h-38.875c-2.209,0-4-1.791-4-4v-33.5h46.875v33.5C352.813,204.459,351.021,206.25,348.813,206.25z"/>
<path fill="#1E597E" d="M343.438,159.375h-28.125c-5.178,0-9.375,4.197-9.375,9.375l0,0c0,5.178,4.197,9.375,9.375,9.375h28.125
	c5.182,0,9.375-4.197,9.375-9.375l0,0C352.813,163.572,348.615,159.375,343.438,159.375z"/>
<polygon fill="#144261" points="470,543.75 432.5,581.25 432.5,712.5 470,675 "/>
<polygon fill="#144261" points="713.75,543.75 751.25,581.25 751.25,712.5 713.75,675 "/>
<g>
	<path d="M741.875,694.922c-0.3,0-0.6-0.114-0.828-0.344l-18.75-18.75c-0.458-0.457-0.458-1.199,0-1.656
		c0.457-0.458,1.199-0.458,1.656,0l18.75,18.75c0.458,0.457,0.458,1.199,0,1.656C742.475,694.808,742.175,694.922,741.875,694.922z"
		/>
	<path d="M741.875,685.547c-0.3,0-0.6-0.114-0.828-0.344l-18.75-18.75c-0.458-0.457-0.458-1.199,0-1.656
		c0.457-0.458,1.199-0.458,1.656,0l18.75,18.75c0.458,0.457,0.458,1.199,0,1.656C742.475,685.433,742.175,685.547,741.875,685.547z"
		/>
	<path d="M741.875,676.172c-0.3,0-0.6-0.114-0.828-0.344l-18.75-18.75c-0.458-0.457-0.458-1.199,0-1.656
		c0.457-0.458,1.199-0.458,1.656,0l18.75,18.75c0.458,0.457,0.458,1.199,0,1.656C742.475,676.058,742.175,676.172,741.875,676.172z"
		/>
	<path d="M741.875,666.797c-0.3,0-0.6-0.114-0.828-0.344l-18.75-18.75c-0.458-0.457-0.458-1.199,0-1.656
		c0.457-0.458,1.199-0.458,1.656,0l18.75,18.75c0.458,0.457,0.458,1.199,0,1.656C742.475,666.683,742.175,666.797,741.875,666.797z"
		/>
	<path d="M741.875,657.422c-0.3,0-0.6-0.114-0.828-0.344l-18.75-18.75c-0.458-0.457-0.458-1.199,0-1.656
		c0.457-0.458,1.199-0.458,1.656,0l18.75,18.75c0.458,0.457,0.458,1.199,0,1.656C742.475,657.308,742.175,657.422,741.875,657.422z"
		/>
	<path d="M741.875,648.047c-0.3,0-0.6-0.114-0.828-0.344l-18.75-18.75c-0.458-0.457-0.458-1.199,0-1.656
		c0.457-0.458,1.199-0.458,1.656,0l18.75,18.75c0.458,0.457,0.458,1.199,0,1.656C742.475,647.933,742.175,648.047,741.875,648.047z"
		/>
	<path d="M741.875,638.672c-0.3,0-0.6-0.114-0.828-0.344l-18.75-18.75c-0.458-0.457-0.458-1.199,0-1.656
		c0.457-0.458,1.199-0.458,1.656,0l18.75,18.75c0.458,0.457,0.458,1.199,0,1.656C742.475,638.558,742.175,638.672,741.875,638.672z"
		/>
	<path d="M741.875,629.297c-0.3,0-0.6-0.114-0.828-0.344l-18.75-18.75c-0.458-0.457-0.458-1.199,0-1.656
		c0.457-0.458,1.199-0.458,1.656,0l18.75,18.75c0.458,0.457,0.458,1.199,0,1.656C742.475,629.183,742.175,629.297,741.875,629.297z"
		/>
	<path d="M741.875,619.922c-0.3,0-0.6-0.114-0.828-0.344l-18.75-18.75c-0.458-0.458-0.458-1.199,0-1.657
		c0.457-0.458,1.199-0.458,1.656,0l18.75,18.75c0.458,0.457,0.458,1.199,0,1.656C742.475,619.808,742.175,619.922,741.875,619.922z"
		/>
	<path d="M741.875,610.547c-0.3,0-0.6-0.114-0.828-0.344l-18.75-18.75c-0.458-0.458-0.458-1.199,0-1.657
		c0.457-0.458,1.199-0.458,1.656,0l18.75,18.75c0.458,0.457,0.458,1.199,0,1.656C742.475,610.433,742.175,610.547,741.875,610.547z"
		/>
	<path d="M741.875,601.172c-0.3,0-0.6-0.114-0.828-0.343l-18.75-18.75c-0.458-0.458-0.458-1.199,0-1.657
		c0.457-0.458,1.199-0.458,1.656,0l18.75,18.75c0.458,0.458,0.458,1.199,0,1.657C742.475,601.058,742.175,601.172,741.875,601.172z"
		/>
	<path d="M741.875,591.797c-0.3,0-0.6-0.114-0.828-0.343l-18.75-18.75c-0.458-0.458-0.458-1.199,0-1.657
		c0.457-0.458,1.199-0.458,1.656,0l18.75,18.75c0.458,0.458,0.458,1.199,0,1.657C742.475,591.683,742.175,591.797,741.875,591.797z"
		/>
	<path d="M741.875,582.422c-0.3,0-0.6-0.114-0.828-0.343l-18.75-18.75c-0.458-0.458-0.458-1.199,0-1.657
		c0.457-0.458,1.199-0.458,1.656,0l18.75,18.75c0.458,0.458,0.458,1.199,0,1.657C742.475,582.308,742.175,582.422,741.875,582.422z"
		/>
</g>
<polygon fill="#144261" points="488.75,131.25 413.75,206.25 770,206.25 695,131.25 "/>
<rect x="915.313" y="750" fill="#FFFFFF" width="9.375" height="23.438"/>
<path fill="#FFFFFF" d="M920,768.75L920,768.75c-20.711,0-37.5,16.789-37.5,37.5v55.19c0,20.188,15.518,37.563,35.688,38.517
	c21.534,1.015,39.313-16.146,39.313-37.457v-56.25C957.5,785.539,940.711,768.75,920,768.75z"/>
<path fill="#144261" d="M835.625,750h-487.5c-5.178,0-9.375,4.197-9.375,9.375v131.25H845v-131.25
	C845,754.197,840.803,750,835.625,750z"/>
<path fill="#144261" d="M166,768.75h-29.5c-2.209,0-4,1.791-4,4v67c0,2.209,1.791,4,4,4H166c2.209,0,4-1.791,4-4v-67
	C170,770.541,168.209,768.75,166,768.75z"/>
<path fill="#1E597E" d="M282.5,750h-56.25c-10.355,0-18.75,8.395-18.75,18.75v112.5h93.75v-112.5
	C301.25,758.395,292.855,750,282.5,750z"/>
<path d="M282.5,759.375h-56.25c-10.355,0-18.75,8.395-18.75,18.75V881.25h93.75V778.125
	C301.25,767.77,292.855,759.375,282.5,759.375z"/>
<path fill="#1E597E" d="M282.5,862.5h-56.25c-10.355,0-18.75,8.395-18.75,18.75S215.895,900,226.25,900h56.25
	c10.355,0,18.75-8.395,18.75-18.75S292.855,862.5,282.5,862.5z"/>
<circle cx="132.5" cy="698.438" r="14.063"/>
<path d="M192.75,712.5h142c2.209,0,4-1.791,4-4V510.25c0-2.209-1.791-4-4-4h-142c-2.209,0-4,1.791-4,4V708.5
	C188.75,710.709,190.541,712.5,192.75,712.5z"/>
<path fill="#89CADD" d="M1051.25,731.25V600H957.5v131.25c0,10.355,8.395,18.75,18.75,18.75H1070
	C1059.645,750,1051.25,741.605,1051.25,731.25z"/>
<rect x="901.25" y="150" fill="#1E597E" width="187.5" height="112.5"/>
<rect x="929.375" y="150" fill="#144261" width="65.625" height="112.5"/>
<rect x="929.375" y="150" fill="#FDC00F" width="4.688" height="112.5"/>
<rect x="470" y="543.75" fill="#1E597E" width="243.75" height="131.25"/>
<path fill="#A6DAE8" d="M1013.75,618.75c-10.359,0-18.75,8.391-18.75,18.75v93.75c0,10.355-8.395,18.75-18.75,18.75H1070
	c10.355,0,18.75-8.395,18.75-18.75V637.5c0-10.359,8.391-18.75,18.75-18.75H1013.75z"/>
<path fill="#1E597E" d="M807.5,262.5H376.25v-85.75c0-4.418,3.582-8,8-8H799.5c4.418,0,8,3.582,8,8V262.5z"/>
<polygon fill="#144261" points="535.625,168.75 460.625,243.75 629.375,243.75 648.125,225 "/>
<path fill="#144261" d="M799.5,562.5H384.25c-4.418,0-8-3.582-8-8V251.75c0-4.418,3.582-8,8-8H799.5c4.418,0,8,3.582,8,8V554.5
	C807.5,558.918,803.918,562.5,799.5,562.5z"/>
<ellipse fill="#144261" cx="437.188" cy="206.25" rx="37.5" ry="18.75"/>
<rect x="413.75" y="281.25" fill="#FDC00F" width="356.25" height="243.75"/>
<rect x="601.25" y="346.875" opacity="0.25" enable-background="new    " width="150" height="93.75"/>
<rect x="437.188" y="304.688" opacity="0.25" enable-background="new    " width="145.313" height="178.125"/>
<rect x="545" y="562.5" fill="#144261" width="93.75" height="65.625"/>
<polygon fill="#0A2135" points="751.25,712.5 432.5,712.5 470,675 713.75,675 "/>
<g>
	<g>
		<rect x="809.844" y="771.094" fill="#1E597E" width="14.063" height="14.063"/>
		<rect x="791.094" y="771.094" fill="#1E597E" width="14.063" height="14.063"/>
		<rect x="772.344" y="771.094" fill="#1E597E" width="14.063" height="14.063"/>
		<rect x="753.594" y="771.094" fill="#1E597E" width="14.063" height="14.063"/>
		<rect x="753.594" y="789.844" fill="#1E597E" width="14.063" height="14.063"/>
		<rect x="753.594" y="808.594" fill="#1E597E" width="14.063" height="14.063"/>
		<rect x="753.594" y="827.344" fill="#1E597E" width="14.063" height="14.063"/>
		<rect x="716.094" y="846.094" fill="#1E597E" width="14.063" height="14.063"/>
		<rect x="697.344" y="846.094" fill="#1E597E" width="14.063" height="14.063"/>
		<rect x="678.594" y="846.094" fill="#1E597E" width="14.063" height="14.063"/>
		<rect x="697.344" y="827.344" fill="#1E597E" width="14.063" height="14.063"/>
		<rect x="716.094" y="771.094" fill="#1E597E" width="14.063" height="14.063"/>
		<rect x="697.344" y="771.094" fill="#1E597E" width="14.063" height="14.063"/>
		<rect x="678.594" y="771.094" fill="#1E597E" width="14.063" height="14.063"/>
		<rect x="641.094" y="771.094" fill="#1E597E" width="14.063" height="14.063"/>
		<rect x="622.344" y="771.094" fill="#1E597E" width="14.063" height="14.063"/>
		<rect x="603.594" y="771.094" fill="#1E597E" width="14.063" height="14.063"/>
		<rect x="584.844" y="771.094" fill="#1E597E" width="14.063" height="14.063"/>
		<rect x="566.094" y="771.094" fill="#1E597E" width="14.063" height="14.063"/>
		<rect x="547.344" y="771.094" fill="#1E597E" width="14.063" height="14.063"/>
		<rect x="509.844" y="771.094" fill="#1E597E" width="14.063" height="14.063"/>
		<rect x="491.094" y="771.094" fill="#1E597E" width="14.063" height="14.063"/>
		<rect x="472.344" y="771.094" fill="#1E597E" width="14.063" height="14.063"/>
		<rect x="434.844" y="771.094" fill="#1E597E" width="14.063" height="14.063"/>
		<rect x="416.094" y="771.094" fill="#1E597E" width="14.063" height="14.063"/>
		<rect x="397.344" y="771.094" fill="#1E597E" width="14.063" height="14.063"/>
		<rect x="359.844" y="771.094" fill="#1E597E" width="14.063" height="14.063"/>
		<rect x="359.844" y="808.594" fill="#1E597E" width="14.063" height="14.063"/>
		<rect x="359.844" y="827.344" fill="#1E597E" width="14.063" height="14.063"/>
		<rect x="359.844" y="846.094" fill="#1E597E" width="14.063" height="14.063"/>
		<rect x="378.594" y="846.094" fill="#1E597E" width="14.063" height="14.063"/>
		<rect x="378.594" y="827.344" fill="#1E597E" width="14.063" height="14.063"/>
		<rect x="378.594" y="808.594" fill="#1E597E" width="14.063" height="14.063"/>
		<rect x="397.344" y="808.594" fill="#1E597E" width="14.063" height="14.063"/>
		<rect x="397.344" y="827.344" fill="#1E597E" width="14.063" height="14.063"/>
		<rect x="397.344" y="846.094" fill="#1E597E" width="14.063" height="14.063"/>
		<rect x="416.094" y="846.094" fill="#1E597E" width="14.063" height="14.063"/>
		<rect x="416.094" y="827.344" fill="#1E597E" width="14.063" height="14.063"/>
		<rect x="416.094" y="808.594" fill="#1E597E" width="14.063" height="14.063"/>
		<rect x="434.844" y="808.594" fill="#1E597E" width="14.063" height="14.063"/>
		<rect x="434.844" y="827.344" fill="#1E597E" width="14.063" height="14.063"/>
		<polygon fill="#1E597E" points="561.406,846.094 547.344,846.094 542.656,846.094 528.594,846.094 523.906,846.094 
			509.844,846.094 505.156,846.094 491.094,846.094 486.406,846.094 472.344,846.094 467.656,846.094 453.594,846.094 
			448.906,846.094 434.844,846.094 434.844,860.156 580.156,860.156 580.156,846.094 566.094,846.094 		"/>
		<rect x="453.594" y="827.344" fill="#1E597E" width="14.063" height="14.063"/>
		<rect x="453.594" y="808.594" fill="#1E597E" width="14.063" height="14.063"/>
		<rect x="472.344" y="808.594" fill="#1E597E" width="14.063" height="14.063"/>
		<rect x="472.344" y="827.344" fill="#1E597E" width="14.063" height="14.063"/>
		<rect x="491.094" y="827.344" fill="#1E597E" width="14.063" height="14.063"/>
		<rect x="491.094" y="808.594" fill="#1E597E" width="14.063" height="14.063"/>
		<rect x="509.844" y="808.594" fill="#1E597E" width="14.063" height="14.063"/>
		<rect x="509.844" y="827.344" fill="#1E597E" width="14.063" height="14.063"/>
		<rect x="528.594" y="827.344" fill="#1E597E" width="14.063" height="14.063"/>
		<rect x="528.594" y="808.594" fill="#1E597E" width="14.063" height="14.063"/>
		<rect x="547.344" y="808.594" fill="#1E597E" width="14.063" height="14.063"/>
		<rect x="547.344" y="827.344" fill="#1E597E" width="14.063" height="14.063"/>
		<rect x="566.094" y="827.344" fill="#1E597E" width="14.063" height="14.063"/>
		<rect x="566.094" y="808.594" fill="#1E597E" width="14.063" height="14.063"/>
		<rect x="584.844" y="808.594" fill="#1E597E" width="14.063" height="14.063"/>
		<rect x="584.844" y="827.344" fill="#1E597E" width="14.063" height="14.063"/>
		<rect x="584.844" y="846.094" fill="#1E597E" width="14.063" height="14.063"/>
		<rect x="603.594" y="846.094" fill="#1E597E" width="14.063" height="14.063"/>
		<rect x="603.594" y="827.344" fill="#1E597E" width="14.063" height="14.063"/>
		<rect x="603.594" y="808.594" fill="#1E597E" width="14.063" height="14.063"/>
		<rect x="622.344" y="808.594" fill="#1E597E" width="14.063" height="14.063"/>
		<rect x="622.344" y="827.344" fill="#1E597E" width="14.063" height="14.063"/>
		<rect x="622.344" y="846.094" fill="#1E597E" width="14.063" height="14.063"/>
		<rect x="641.094" y="846.094" fill="#1E597E" width="14.063" height="14.063"/>
		<rect x="641.094" y="827.344" fill="#1E597E" width="14.063" height="14.063"/>
		<rect x="641.094" y="808.594" fill="#1E597E" width="14.063" height="14.063"/>
		<polygon fill="#1E597E" points="767.656,846.094 753.594,846.094 753.594,860.156 786.406,860.156 786.406,846.094 
			772.344,846.094 		"/>
		<rect x="791.094" y="846.094" fill="#1E597E" width="14.063" height="14.063"/>
		<polygon fill="#1E597E" points="809.844,841.406 809.844,846.094 809.844,860.156 823.906,860.156 823.906,827.344 
			809.844,827.344 		"/>
		<rect x="791.094" y="827.344" fill="#1E597E" width="14.063" height="14.063"/>
		<rect x="772.344" y="827.344" fill="#1E597E" width="14.063" height="14.063"/>
		<rect x="772.344" y="808.594" fill="#1E597E" width="14.063" height="14.063"/>
		<rect x="791.094" y="808.594" fill="#1E597E" width="14.063" height="14.063"/>
		<polygon fill="#1E597E" points="809.844,803.906 809.844,808.594 809.844,822.656 823.906,822.656 823.906,789.844 
			809.844,789.844 		"/>
		<rect x="791.094" y="789.844" fill="#1E597E" width="14.063" height="14.063"/>
		<rect x="772.344" y="789.844" fill="#1E597E" width="14.063" height="14.063"/>
	</g>
</g>
<rect x="132.5" y="168.75" fill="#1E597E" width="150" height="37.5"/>
<rect x="170" y="281.25" fill="#1E597E" width="75" height="37.5"/>
<rect x="76.25" y="281.25" fill="#1E597E" width="75" height="37.5"/>
<rect x="263.75" y="281.25" fill="#1E597E" width="75" height="37.5"/>
<rect x="170" y="337.5" fill="#1E597E" width="75" height="37.5"/>
<polygon fill="#1E597E" points="207.5,225 151.25,243.75 207.5,262.5 263.75,243.75 "/>
<ellipse fill="#1E597E" cx="207.5" cy="112.5" rx="37.5" ry="18.75"/>
<ellipse fill="#1E597E" cx="207.5" cy="431.25" rx="37.5" ry="18.75"/>
<path fill="#1E597E" d="M166,750h-29.5c-2.209,0-4,1.791-4,4v67c0,2.209,1.791,4,4,4H166c2.209,0,4-1.791,4-4v-67
	C170,751.791,168.209,750,166,750z"/>
<path d="M158.625,801.563h-14.75c-1.1,0-2-0.896-2-2v-24.125c0-1.1,0.9-2,2-2h14.75c1.1,0,2,0.9,2,2v24.125
	C160.625,800.662,159.725,801.563,158.625,801.563z"/>
<rect x="901.25" y="262.5" width="187.5" height="18.75"/>
<rect x="845" y="206.25" fill="#144261" width="187.5" height="37.5"/>
<rect x="545" y="562.5" fill="#0A2135" width="93.75" height="18.75"/>
<rect x="488.75" y="646.875" width="37.5" height="9.375"/>
<line fill="none" stroke="#FFFFFF" stroke-width="2.3438" stroke-linecap="round" stroke-linejoin="round" stroke-miterlimit="10" stroke-dasharray="0,4.6875" x1="207.5" y1="210.938" x2="207.5" y2="220.313"/>
<g>
	<g>
		<g>
			
				<line fill="none" stroke="#FFFFFF" stroke-width="2.3438" stroke-linecap="round" stroke-linejoin="round" x1="207.5" y1="164.063" x2="207.5" y2="164.063"/>
			
				<line fill="none" stroke="#FFFFFF" stroke-width="2.3438" stroke-linecap="round" stroke-linejoin="round" stroke-dasharray="0,4.6875" x1="207.5" y1="159.375" x2="207.5" y2="138.281"/>
			
				<line fill="none" stroke="#FFFFFF" stroke-width="2.3438" stroke-linecap="round" stroke-linejoin="round" x1="207.5" y1="135.938" x2="207.5" y2="135.938"/>
		</g>
	</g>
</g>
<polyline fill="none" stroke="#FFFFFF" stroke-width="2.3438" stroke-linecap="round" stroke-linejoin="round" stroke-miterlimit="10" stroke-dasharray="0,4.6875" points="
	146.563,243.75 113.75,243.75 113.75,276.563 "/>
<line fill="none" stroke="#FFFFFF" stroke-width="2.3438" stroke-linecap="round" stroke-linejoin="round" stroke-miterlimit="10" stroke-dasharray="0,4.6875" x1="207.5" y1="267.188" x2="207.5" y2="276.563"/>
<polyline fill="none" stroke="#FFFFFF" stroke-width="2.3438" stroke-linecap="round" stroke-linejoin="round" stroke-miterlimit="10" stroke-dasharray="0,4.6875" points="
	268.438,243.75 301.25,243.75 301.25,276.563 "/>
<line fill="none" stroke="#FFFFFF" stroke-width="2.3438" stroke-linecap="round" stroke-linejoin="round" stroke-miterlimit="10" stroke-dasharray="0,4.6875" x1="207.5" y1="323.438" x2="207.5" y2="332.813"/>
<polyline fill="none" stroke="#FFFFFF" stroke-width="2.3438" stroke-linecap="round" stroke-linejoin="round" stroke-miterlimit="10" stroke-dasharray="0,4.6875" points="
	113.75,323.438 113.75,356.25 165.313,356.25 "/>
<line fill="none" stroke="#FFFFFF" stroke-width="2.3438" stroke-linecap="round" stroke-linejoin="round" stroke-miterlimit="10" stroke-dasharray="0,4.6875" x1="207.5" y1="379.688" x2="207.5" y2="407.813"/>
<rect x="845" y="93.75" fill="#FFFFFF" width="187.5" height="112.5"/>
<rect x="845" y="337.5" fill="#1E597E" width="168.75" height="225"/>
<rect x="868.438" y="360.938" fill="#144261" width="131.25" height="187.5"/>
<path fill="#1E597E" d="M192.75,693.75h142c2.209,0,4-1.791,4-4V491.5c0-2.209-1.791-4-4-4h-142c-2.209,0-4,1.791-4,4v198.25
	C188.75,691.959,190.541,693.75,192.75,693.75z"/>
<path fill="#1E597E" d="M149.25,698.438h-33.5c-1.104,0-2-0.896-2-2V639.5c0-1.104,0.896-2,2-2h33.5c1.104,0,2,0.896,2,2v56.938
	C151.25,697.542,150.354,698.438,149.25,698.438z"/>
<polygon fill="#FFFFFF" points="137.188,496.875 132.5,487.5 127.813,496.875 127.813,618.75 137.188,618.75 "/>
<rect x="863.75" y="356.25" fill="#FFFFFF" width="131.25" height="187.5"/>
<g>
	
		<line fill="none" stroke="#A6DAE8" stroke-width="1.1719" stroke-miterlimit="10" x1="873.125" y1="384.375" x2="985.625" y2="384.375"/>
	
		<line fill="none" stroke="#A6DAE8" stroke-width="1.1719" stroke-miterlimit="10" x1="873.125" y1="393.75" x2="985.625" y2="393.75"/>
	
		<line fill="none" stroke="#A6DAE8" stroke-width="1.1719" stroke-miterlimit="10" x1="873.125" y1="403.125" x2="985.625" y2="403.125"/>
	
		<line fill="none" stroke="#A6DAE8" stroke-width="1.1719" stroke-miterlimit="10" x1="873.125" y1="412.5" x2="985.625" y2="412.5"/>
	
		<line fill="none" stroke="#A6DAE8" stroke-width="1.1719" stroke-miterlimit="10" x1="873.125" y1="421.875" x2="985.625" y2="421.875"/>
	
		<line fill="none" stroke="#A6DAE8" stroke-width="1.1719" stroke-miterlimit="10" x1="873.125" y1="431.25" x2="985.625" y2="431.25"/>
	
		<line fill="none" stroke="#A6DAE8" stroke-width="1.1719" stroke-miterlimit="10" x1="873.125" y1="440.625" x2="985.625" y2="440.625"/>
	<line fill="none" stroke="#A6DAE8" stroke-width="1.1719" stroke-miterlimit="10" x1="873.125" y1="450" x2="985.625" y2="450"/>
	
		<line fill="none" stroke="#A6DAE8" stroke-width="1.1719" stroke-miterlimit="10" x1="873.125" y1="459.375" x2="985.625" y2="459.375"/>
	
		<line fill="none" stroke="#A6DAE8" stroke-width="1.1719" stroke-miterlimit="10" x1="873.125" y1="468.75" x2="985.625" y2="468.75"/>
	
		<line fill="none" stroke="#A6DAE8" stroke-width="1.1719" stroke-miterlimit="10" x1="873.125" y1="478.125" x2="985.625" y2="478.125"/>
	
		<line fill="none" stroke="#A6DAE8" stroke-width="1.1719" stroke-miterlimit="10" x1="873.125" y1="487.5" x2="985.625" y2="487.5"/>
	
		<line fill="none" stroke="#A6DAE8" stroke-width="1.1719" stroke-miterlimit="10" x1="873.125" y1="496.875" x2="985.625" y2="496.875"/>
	
		<line fill="none" stroke="#A6DAE8" stroke-width="1.1719" stroke-miterlimit="10" x1="873.125" y1="506.25" x2="985.625" y2="506.25"/>
	
		<line fill="none" stroke="#A6DAE8" stroke-width="1.1719" stroke-miterlimit="10" x1="873.125" y1="515.625" x2="985.625" y2="515.625"/>
	<line fill="none" stroke="#A6DAE8" stroke-width="1.1719" stroke-miterlimit="10" x1="873.125" y1="525" x2="985.625" y2="525"/>
	
		<line fill="none" stroke="#A6DAE8" stroke-width="1.1719" stroke-miterlimit="10" x1="873.125" y1="534.375" x2="985.625" y2="534.375"/>
</g>
<polygon fill="#144261" points="1032.5,243.75 1088.75,187.5 1088.75,150 1032.5,150 "/>
<rect x="198.125" y="496.875" fill="#FFFFFF" width="131.25" height="168.75"/>
<path fill="#144261" d="M263.75,675c2.589,0,4.688,2.099,4.688,4.688c0,2.593-2.099,4.688-4.688,4.688s-4.688-2.099-4.688-4.688
	C259.062,677.099,261.161,675,263.75,675 M263.75,670.313c-5.169,0-9.375,4.206-9.375,9.375c0,5.173,4.206,9.375,9.375,9.375
	s9.375-4.202,9.375-9.375C273.125,674.519,268.919,670.313,263.75,670.313L263.75,670.313z"/>
<rect x="207.5" y="506.25" fill="#A6DAE8" width="56.25" height="4.688"/>
<rect x="207.5" y="543.75" fill="#A6DAE8" width="14.063" height="4.688"/>
<rect x="226.25" y="543.75" fill="#A6DAE8" width="42.188" height="4.688"/>
<rect x="226.25" y="553.125" fill="#A6DAE8" width="42.188" height="4.688"/>
<rect x="226.25" y="562.5" fill="#A6DAE8" width="51.563" height="4.688"/>
<rect x="245" y="571.875" fill="#A6DAE8" width="32.813" height="4.688"/>
<rect x="226.25" y="581.25" fill="#A6DAE8" width="32.813" height="4.688"/>
<rect x="207.5" y="590.625" fill="#A6DAE8" width="28.125" height="4.688"/>
<rect x="207.5" y="651.563" fill="#A6DAE8" width="28.125" height="4.688"/>
<rect x="207.5" y="642.188" fill="#A6DAE8" width="28.125" height="4.688"/>
<rect x="207.5" y="632.813" fill="#A6DAE8" width="28.125" height="4.688"/>
<rect x="226.25" y="515.625" fill="#A6DAE8" width="23.438" height="4.688"/>
<rect x="226.25" y="525" fill="#A6DAE8" width="42.188" height="4.688"/>
<rect x="226.25" y="534.375" fill="#A6DAE8" width="18.75" height="4.688"/>
<rect x="320" y="496.875" fill="#A6DAE8" width="9.375" height="168.75"/>
<rect x="320" y="543.75" fill="#6CBAD3" width="9.375" height="9.375"/>
<rect x="118.438" y="628.125" width="28.125" height="9.375"/>
<path d="M132.5,691.406c-1.295,0-2.344-1.05-2.344-2.344v-42.188c0-1.294,1.048-2.344,2.344-2.344s2.344,1.05,2.344,2.344v42.188
	C134.844,690.356,133.795,691.406,132.5,691.406z"/>
<path d="M123.125,691.406c-1.295,0-2.344-1.05-2.344-2.344v-42.188c0-1.294,1.048-2.344,2.344-2.344s2.344,1.05,2.344,2.344v42.188
	C125.469,690.356,124.42,691.406,123.125,691.406z"/>
<path d="M141.875,691.406c-1.295,0-2.344-1.05-2.344-2.344v-42.188c0-1.294,1.048-2.344,2.344-2.344s2.344,1.05,2.344,2.344v42.188
	C144.219,690.356,143.17,691.406,141.875,691.406z"/>
<path fill="#1E597E" d="M146.563,618.75h-28.125c-2.589,0-4.688,2.099-4.688,4.688c0,2.593,2.099,4.688,4.688,4.688h28.125
	c2.589,0,4.688-2.099,4.688-4.688C151.251,620.849,149.151,618.75,146.563,618.75z"/>
<path fill="#FFFFFF" d="M282.5,867.188h-56.25c-7.767,0-14.063,6.3-14.063,14.063s6.296,14.063,14.063,14.063h56.25
	c7.767,0,14.063-6.3,14.063-14.063S290.267,867.188,282.5,867.188z"/>
<rect x="240.313" y="843.75" fill="#1E597E" width="28.125" height="9.375"/>
<circle fill="#FDC00F" cx="226.25" cy="881.25" r="2.344"/>
<rect x="245" y="754.688" fill="#1E597E" width="18.75" height="18.75"/>
<circle fill="#1E597E" cx="254.375" cy="773.438" r="9.375"/>
<circle fill="#FDC00F" cx="254.375" cy="773.438" r="4.688"/>
<rect x="141.875" y="829.688" fill="#FFFFFF" width="18.75" height="18.75"/>
<rect x="141.875" y="848.438" fill="#A6DAE8" width="18.75" height="9.375"/>
<rect x="144.219" y="850.781" fill="#202020" width="14.063" height="4.688"/>
<path fill="#FDC00F" d="M155.938,801.563h-9.375c-2.578,0-4.688-2.105-4.688-4.688l0,0c0-2.578,2.109-4.688,4.688-4.688h9.375
	c2.578,0,4.688,2.105,4.688,4.688l0,0C160.625,799.453,158.516,801.563,155.938,801.563z"/>
<rect x="144.219" y="836.719" fill="#202020" width="4.688" height="4.688"/>
<rect x="153.594" y="836.719" fill="#202020" width="4.688" height="4.688"/>
<path d="M169.157,838.22l-8.532-8.532v14.063C164.429,843.75,167.687,841.475,169.157,838.22z"/>
<path fill="#FFFFFF" d="M1107.5,618.75h-93.75c10.355,0,18.75,8.395,18.75,18.75v131.25h93.75V637.5
	C1126.25,627.145,1117.855,618.75,1107.5,618.75z"/>
<g>
	<rect x="762.969" y="536.719" fill="#FDC00F" width="4.688" height="14.063"/>
	<rect x="697.344" y="536.719" fill="#1E597E" width="32.813" height="14.063"/>
	<rect x="659.844" y="536.719" fill="#1E597E" width="32.813" height="14.063"/>
	<rect x="734.844" y="536.719" fill="#1E597E" width="23.438" height="14.063"/>
</g>
<path d="M835.625,881.25h-487.5c-5.178,0-9.375,4.197-9.375,9.375s4.197,9.375,9.375,9.375h487.5c5.178,0,9.375-4.197,9.375-9.375
	S840.803,881.25,835.625,881.25z"/>
<g>
	<g>
		<rect x="1052.422" y="636.328" fill="#1E597E" width="2.344" height="11.719"/>
		<rect x="1052.422" y="655.078" fill="#1E597E" width="2.344" height="11.719"/>
		<rect x="1057.109" y="655.078" fill="#1E597E" width="2.344" height="11.719"/>
		<rect x="1057.109" y="673.828" fill="#1E597E" width="2.344" height="11.719"/>
		<rect x="1057.109" y="692.578" fill="#1E597E" width="2.344" height="11.719"/>
		<rect x="1057.109" y="711.328" fill="#1E597E" width="2.344" height="11.719"/>
		<rect x="1061.797" y="711.328" fill="#1E597E" width="2.344" height="11.719"/>
		<rect x="1085.234" y="636.328" fill="#1E597E" width="2.344" height="11.719"/>
		<rect x="1089.922" y="636.328" fill="#1E597E" width="2.344" height="11.719"/>
		<rect x="1080.547" y="692.578" fill="#1E597E" width="2.344" height="11.719"/>
		<rect x="1080.547" y="711.328" fill="#1E597E" width="2.344" height="11.719"/>
		<rect x="1099.297" y="711.328" fill="#1E597E" width="2.344" height="11.719"/>
		<rect x="1089.922" y="692.578" fill="#1E597E" width="2.344" height="11.719"/>
		<rect x="1085.234" y="692.578" fill="#1E597E" width="2.344" height="11.719"/>
		<rect x="1118.047" y="673.828" fill="#1E597E" width="2.344" height="11.719"/>
		<rect x="1108.672" y="655.078" fill="#1E597E" width="2.344" height="11.719"/>
		<rect x="1108.672" y="636.328" fill="#1E597E" width="2.344" height="11.719"/>
		<rect x="1075.859" y="655.078" fill="#1E597E" width="2.344" height="11.719"/>
		<rect x="1075.859" y="692.578" fill="#1E597E" width="2.344" height="11.719"/>
		<rect x="1052.422" y="673.828" fill="#1E597E" width="2.344" height="11.719"/>
		<rect x="1052.422" y="692.578" fill="#1E597E" width="2.344" height="11.719"/>
		<rect x="1052.422" y="711.328" fill="#1E597E" width="2.344" height="11.719"/>
		<path fill="#1E597E" d="M1044.219,648.047c-3.229,0-5.855-2.629-5.855-5.859c0-3.229,2.627-5.855,5.855-5.855
			c3.231,0,5.859,2.629,5.859,5.855C1050.078,645.418,1047.45,648.047,1044.219,648.047z M1044.219,638.672
			c-1.938,0-3.516,1.577-3.516,3.516c0,1.939,1.577,3.52,3.516,3.52c1.939,0,3.52-1.577,3.52-3.52
			C1047.735,640.249,1046.157,638.672,1044.219,638.672z"/>
		<path fill="#1E597E" d="M1062.969,648.047c-3.229,0-5.855-2.629-5.855-5.859c0-3.229,2.627-5.855,5.855-5.855
			c3.231,0,5.859,2.629,5.859,5.855C1068.828,645.418,1066.2,648.047,1062.969,648.047z M1062.969,638.672
			c-1.938,0-3.516,1.577-3.516,3.516c0,1.939,1.577,3.52,3.516,3.52c1.939,0,3.52-1.577,3.52-3.52
			C1066.485,640.249,1064.907,638.672,1062.969,638.672z"/>
		<path fill="#1E597E" d="M1077.031,648.047c-3.232,0-5.859-2.629-5.859-5.859c0-3.229,2.627-5.855,5.859-5.855
			c3.229,0,5.855,2.629,5.855,5.855C1082.89,645.418,1080.263,648.047,1077.031,648.047z M1077.031,638.672
			c-1.938,0-3.52,1.577-3.52,3.516c0,1.939,1.577,3.52,3.52,3.52c1.938,0,3.516-1.577,3.516-3.52
			C1080.547,640.249,1078.97,638.672,1077.031,638.672z"/>
		<path fill="#1E597E" d="M1067.656,666.797c-3.232,0-5.859-2.629-5.859-5.859c0-3.229,2.627-5.855,5.859-5.855
			c3.229,0,5.855,2.629,5.855,5.855C1073.515,664.168,1070.888,666.797,1067.656,666.797z M1067.656,657.422
			c-1.938,0-3.52,1.577-3.52,3.516c0,1.939,1.577,3.52,3.52,3.52c1.938,0,3.516-1.577,3.516-3.52
			C1071.172,658.999,1069.595,657.422,1067.656,657.422z"/>
		<path fill="#1E597E" d="M1067.656,685.547c-3.232,0-5.859-2.629-5.859-5.859c0-3.229,2.627-5.855,5.859-5.855
			c3.229,0,5.855,2.629,5.855,5.855C1073.515,682.918,1070.888,685.547,1067.656,685.547z M1067.656,676.172
			c-1.938,0-3.52,1.577-3.52,3.516c0,1.939,1.577,3.52,3.52,3.52c1.938,0,3.516-1.577,3.516-3.52
			C1071.172,677.749,1069.595,676.172,1067.656,676.172z"/>
		<path fill="#1E597E" d="M1081.719,685.547c-3.229,0-5.855-2.629-5.855-5.859c0-3.229,2.627-5.855,5.855-5.855
			c3.231,0,5.859,2.629,5.859,5.855C1087.578,682.918,1084.95,685.547,1081.719,685.547z M1081.719,676.172
			c-1.938,0-3.516,1.577-3.516,3.516c0,1.939,1.577,3.52,3.516,3.52c1.939,0,3.52-1.577,3.52-3.52
			C1085.235,677.749,1083.657,676.172,1081.719,676.172z"/>
		<path fill="#1E597E" d="M1095.781,685.547c-3.231,0-5.859-2.629-5.859-5.859c0-3.229,2.628-5.855,5.859-5.855
			c3.229,0,5.855,2.629,5.855,5.855C1101.64,682.918,1099.013,685.547,1095.781,685.547z M1095.781,676.172
			c-1.938,0-3.52,1.577-3.52,3.516c0,1.939,1.577,3.52,3.52,3.52c1.938,0,3.516-1.577,3.516-3.52
			C1099.297,677.749,1097.72,676.172,1095.781,676.172z"/>
		<path fill="#1E597E" d="M1086.406,666.797c-3.232,0-5.859-2.629-5.859-5.859c0-3.229,2.627-5.855,5.859-5.855
			c3.229,0,5.855,2.629,5.855,5.855C1092.265,664.168,1089.638,666.797,1086.406,666.797z M1086.406,657.422
			c-1.938,0-3.52,1.577-3.52,3.516c0,1.939,1.577,3.52,3.52,3.52c1.938,0,3.516-1.577,3.516-3.52
			C1089.922,658.999,1088.345,657.422,1086.406,657.422z"/>
		<path fill="#1E597E" d="M1100.469,666.797c-3.229,0-5.855-2.629-5.855-5.859c0-3.229,2.628-5.855,5.855-5.855
			c3.231,0,5.859,2.629,5.859,5.855C1106.328,664.168,1103.7,666.797,1100.469,666.797z M1100.469,657.422
			c-1.938,0-3.516,1.577-3.516,3.516c0,1.939,1.577,3.52,3.516,3.52c1.939,0,3.52-1.577,3.52-3.52
			C1103.985,658.999,1102.407,657.422,1100.469,657.422z"/>
		<path fill="#1E597E" d="M1100.469,648.047c-3.229,0-5.855-2.629-5.855-5.859c0-3.229,2.628-5.855,5.855-5.855
			c3.231,0,5.859,2.629,5.859,5.855C1106.328,645.418,1103.7,648.047,1100.469,648.047z M1100.469,638.672
			c-1.938,0-3.516,1.577-3.516,3.516c0,1.939,1.577,3.52,3.516,3.52c1.939,0,3.52-1.577,3.52-3.52
			C1103.985,640.249,1102.407,638.672,1100.469,638.672z"/>
		<path fill="#1E597E" d="M1109.844,685.547c-3.229,0-5.855-2.629-5.855-5.859c0-3.229,2.628-5.855,5.855-5.855
			c3.231,0,5.859,2.629,5.859,5.855C1115.703,682.918,1113.075,685.547,1109.844,685.547z M1109.844,676.172
			c-1.938,0-3.516,1.577-3.516,3.516c0,1.939,1.577,3.52,3.516,3.52c1.939,0,3.52-1.577,3.52-3.52
			C1113.36,677.749,1111.782,676.172,1109.844,676.172z"/>
		<path fill="#1E597E" d="M1091.094,723.047c-3.229,0-5.855-2.629-5.855-5.859c0-3.229,2.627-5.855,5.855-5.855
			c3.231,0,5.859,2.629,5.859,5.855C1096.953,720.418,1094.325,723.047,1091.094,723.047z M1091.094,713.672
			c-1.938,0-3.516,1.577-3.516,3.516c0,1.939,1.577,3.52,3.516,3.52c1.939,0,3.52-1.577,3.52-3.52
			C1094.61,715.249,1093.032,713.672,1091.094,713.672z"/>
		<path fill="#1E597E" d="M1072.344,723.047c-3.229,0-5.855-2.629-5.855-5.859c0-3.229,2.627-5.855,5.855-5.855
			c3.231,0,5.859,2.629,5.859,5.855C1078.203,720.418,1075.575,723.047,1072.344,723.047z M1072.344,713.672
			c-1.938,0-3.516,1.577-3.516,3.516c0,1.939,1.577,3.52,3.516,3.52c1.939,0,3.52-1.577,3.52-3.52
			C1075.86,715.249,1074.282,713.672,1072.344,713.672z"/>
		<path fill="#1E597E" d="M1067.656,704.297c-3.232,0-5.859-2.629-5.859-5.859c0-3.229,2.627-5.855,5.859-5.855
			c3.229,0,5.855,2.629,5.855,5.855C1073.515,701.668,1070.888,704.297,1067.656,704.297z M1067.656,694.922
			c-1.938,0-3.52,1.577-3.52,3.516c0,1.939,1.577,3.52,3.52,3.52c1.938,0,3.516-1.577,3.516-3.52
			C1071.172,696.499,1069.595,694.922,1067.656,694.922z"/>
		<path fill="#1E597E" d="M1044.219,666.797c-3.229,0-5.855-2.629-5.855-5.859c0-3.229,2.627-5.855,5.855-5.855
			c3.231,0,5.859,2.629,5.859,5.855C1050.078,664.168,1047.45,666.797,1044.219,666.797z M1044.219,657.422
			c-1.938,0-3.516,1.577-3.516,3.516c0,1.939,1.577,3.52,3.516,3.52c1.939,0,3.52-1.577,3.52-3.52
			C1047.735,658.999,1046.157,657.422,1044.219,657.422z"/>
		<path fill="#1E597E" d="M1044.219,685.547c-3.229,0-5.855-2.629-5.855-5.859c0-3.229,2.627-5.855,5.855-5.855
			c3.231,0,5.859,2.629,5.859,5.855C1050.078,682.918,1047.45,685.547,1044.219,685.547z M1044.219,676.172
			c-1.938,0-3.516,1.577-3.516,3.516c0,1.939,1.577,3.52,3.516,3.52c1.939,0,3.52-1.577,3.52-3.52
			C1047.735,677.749,1046.157,676.172,1044.219,676.172z"/>
		<path fill="#1E597E" d="M1044.219,704.297c-3.229,0-5.855-2.629-5.855-5.859c0-3.229,2.627-5.855,5.855-5.855
			c3.231,0,5.859,2.629,5.859,5.855C1050.078,701.668,1047.45,704.297,1044.219,704.297z M1044.219,694.922
			c-1.938,0-3.516,1.577-3.516,3.516c0,1.939,1.577,3.52,3.516,3.52c1.939,0,3.52-1.577,3.52-3.52
			C1047.735,696.499,1046.157,694.922,1044.219,694.922z"/>
		<path fill="#1E597E" d="M1044.219,723.047c-3.229,0-5.855-2.629-5.855-5.859c0-3.229,2.627-5.855,5.855-5.855
			c3.231,0,5.859,2.629,5.859,5.855C1050.078,720.418,1047.45,723.047,1044.219,723.047z M1044.219,713.672
			c-1.938,0-3.516,1.577-3.516,3.516c0,1.939,1.577,3.52,3.516,3.52c1.939,0,3.52-1.577,3.52-3.52
			C1047.735,715.249,1046.157,713.672,1044.219,713.672z"/>
	</g>
</g>
<path fill="#A6DAE8" d="M948.125,346.875v-18.75c0-10.359-8.391-18.75-18.75-18.75s-18.75,8.391-18.75,18.75v18.75h-18.75v18.75h75
	v-18.75H948.125z M929.375,318.75c5.18,0,9.375,4.195,9.375,9.375s-4.195,9.375-9.375,9.375S920,333.305,920,328.125
	S924.195,318.75,929.375,318.75z"/>
<rect x="891.875" y="365.625" fill="#6CBAD3" width="75" height="9.375"/>
<g>
	<rect x="957.5" y="478.125" fill="#FDC00F" width="121.875" height="18.75"/>
	<polygon fill="#FEE087" points="957.5,496.875 938.75,487.5 957.5,478.125 	"/>
	<polygon points="948.125,492.188 938.75,487.5 948.125,482.813 	"/>
	<rect x="1079.375" y="482.813" width="9.375" height="9.375"/>
	<rect x="1060.625" y="478.125" width="9.375" height="18.75"/>
</g>
<g>
	<rect x="938.75" y="506.25" fill="#FDC00F" width="140.625" height="18.75"/>
	<rect x="938.75" y="506.25" width="37.5" height="18.75"/>
	<polygon points="1084.063,510.938 1084.063,506.25 1079.375,506.25 1079.375,525 1084.063,525 1084.063,520.313 1088.75,520.313 
		1088.75,510.938 	"/>
	<path fill="#1E597E" d="M980.938,510.938h-37.5v9.375h37.5c2.593,0,4.688-2.099,4.688-4.688S983.526,510.938,980.938,510.938z"/>
</g>
<rect x="845" y="103.125" fill="#1E597E" width="9.375" height="93.75"/>
<rect x="1013.75" y="103.125" fill="#FDC00F" width="9.375" height="93.75"/>
<rect x="882.5" y="103.125" fill="#1E597E" width="37.5" height="93.75"/>
<path fill="#FDC00F" d="M920,768.75L920,768.75c-0.791,0-1.564,0.07-2.344,0.118v19.246c-4.041,2.085-7.031,9.398-7.031,18.136
	c0,10.354,4.197,18.75,9.375,18.75s9.375-8.396,9.375-18.75c0-8.733-2.99-16.051-7.031-18.136v-19.246
	C921.564,768.82,920.791,768.75,920,768.75z"/>
<path d="M920,820.313c-1.167,0-4.688-4.983-4.688-14.063s3.521-14.063,4.688-14.063s4.688,4.983,4.688,14.063
	S921.167,820.313,920,820.313z"/>
<rect x="995" y="262.5" fill="#144261" width="93.75" height="18.75"/>
<line fill="none" stroke="#FFFFFF" stroke-width="4.6875" stroke-linecap="square" stroke-miterlimit="10" x1="985.625" y1="271.875" x2="910.625" y2="271.875"/>
<rect x="891.875" y="112.5" fill="#FFFFFF" width="9.375" height="75"/>
<rect x="905.938" y="150" fill="#FFFFFF" width="4.688" height="37.5"/>
<polygon fill="#0A2135" points="638.75,628.125 638.75,562.5 704.375,562.5 "/>
<rect x="413.75" y="515.625" fill="#1E597E" width="356.25" height="9.375"/>
<rect x="591.875" y="684.375" fill="#144261" width="112.5" height="18.75"/>
<rect x="690.313" y="693.75" fill="#1E597E" width="9.375" height="4.688"/>
<circle fill="#1E597E" cx="488.75" cy="693.75" r="9.375"/>
<circle fill="#FDC00F" cx="505.156" cy="693.75" r="2.344"/>
<ellipse fill="#FFFFFF" cx="751.25" cy="206.25" rx="37.5" ry="18.75"/>
<rect x="713.75" y="150" fill="#FFFFFF" width="75" height="56.25"/>
<ellipse fill="#FFFFFF" cx="751.25" cy="150" rx="37.5" ry="18.75"/>
<ellipse fill="#A6DAE8" cx="751.25" cy="150" rx="28.125" ry="14.063"/>
<path d="M751.25,140.625c-13.933,0-25.468,5.07-27.703,11.719c2.235,6.648,13.771,11.719,27.703,11.719s25.468-5.07,27.703-11.719
	C776.718,145.695,765.183,140.625,751.25,140.625z"/>
<path fill="#FFFFFF" d="M690.313,178.125v4.688c0,12.914,10.523,23.438,23.438,23.438v-14.063c-6.961,0-12.75-5.086-13.875-11.719
	c1.125-6.633,6.914-11.719,13.875-11.719v-14.063C700.836,154.688,690.313,165.211,690.313,178.125z"/>
<path fill="#1E597E" d="M755.938,150l7.828-31.313c0.794-3.176,4.323-4.799,7.251-3.335l0,0c2.146,1.073,3.261,3.491,2.68,5.817
	l-8.384,33.519L755.938,150z"/>
<g>
	<path fill="#FDC00F" d="M414.961,181.743c0.135-0.081,0.267-0.165,0.398-0.252c1.264-0.843,2.313-2.13,2.513-3.637
		c0.436-3.315-3.926-5.542-5.595-8.002c-2.089-3.08-3.214-6.755-3.214-10.477c0-10.355,8.395-18.75,18.75-18.75
		c10.354,0,18.75,8.395,18.75,18.75c0,2.339-0.46,4.625-1.283,6.81c-0.725,1.909-2.21,3.467-2.792,5.416
		c-0.504,1.689-0.077,3.604,1.02,4.984c2.358,2.965,7.37,2.749,10.758,3.617c3.667,0.94,7.28,2.225,10.607,4.045
		c4.678,2.559,9.814,6.799,9.814,12.629c0,10.355-16.79,18.75-37.5,18.75c-20.714,0-37.5-8.395-37.5-18.75
		c0-3.43,1.904-6.44,4.324-8.731c1.532-1.452,3.292-2.657,5.127-3.689C411.006,183.406,413.142,182.839,414.961,181.743z"/>
	<path fill="#FB9101" d="M470,196.875c0,5.18-8.391,9.375-18.75,9.375c-6.352,0-11.953-1.57-15.328-4.008
		c3.023,1.055,6.68,1.664,10.641,1.664c10.359,0,18.75-4.195,18.75-9.375c0-1.992-1.266-3.867-3.422-5.367
		C466.789,190.852,470,193.664,470,196.875z"/>
	<ellipse fill="#FB9101" cx="420.781" cy="168.75" rx="11.719" ry="7.031"/>
	<circle cx="434.844" cy="157.031" r="2.344"/>
	<circle cx="416.094" cy="157.031" r="2.344"/>
</g>
<polygon points="1116.875,553.125 1126.25,571.875 1070,571.875 1070,553.125 "/>
<rect x="1051.25" y="553.125" fill="#1E597E" width="18.75" height="18.75"/>
<rect x="488.75" y="581.25" fill="#0A2135" width="37.5" height="65.625"/>
<rect x="493.438" y="585.938" fill="#00B1CD" width="28.125" height="23.438"/>
<g>
	<g>
		<rect x="494.609" y="615.234" fill="#144261" width="7.027" height="7.027"/>
		<rect x="494.609" y="624.609" fill="#144261" width="7.027" height="7.027"/>
		<rect x="494.609" y="633.984" fill="#144261" width="7.027" height="7.027"/>
		<rect x="503.984" y="633.984" fill="#144261" width="7.027" height="7.027"/>
		<rect x="503.984" y="624.609" fill="#144261" width="7.027" height="7.027"/>
		<rect x="503.984" y="615.234" fill="#144261" width="7.027" height="7.027"/>
		<rect x="513.359" y="615.234" fill="#144261" width="7.027" height="7.027"/>
		<rect x="513.359" y="624.609" fill="#144261" width="7.027" height="7.027"/>
		<rect x="513.359" y="633.984" fill="#144261" width="7.027" height="7.027"/>
	</g>
</g>
<g>
	<g>
		<path fill="#FFFFFF" d="M183.545,107.07c0.732-0.15,2.062-0.263,3.355-0.263c1.706,0,2.753,0.207,3.617,0.807
			c0.787,0.468,1.312,1.292,1.312,2.361c0,1.161-0.73,2.229-2.099,2.736v0.037c1.332,0.338,2.55,1.387,2.55,3.13
			c0,1.124-0.487,2.005-1.218,2.605c-0.901,0.788-2.38,1.181-4.685,1.181c-1.275,0-2.25-0.094-2.831-0.169L183.545,107.07
			L183.545,107.07z M185.832,112.054h1.181c1.593,0,2.493-0.75,2.493-1.817c0-1.181-0.899-1.724-2.362-1.724
			c-0.673,0-1.066,0.037-1.311,0.093L185.832,112.054L185.832,112.054z M185.832,117.864c0.299,0.037,0.693,0.056,1.217,0.056
			c1.481,0,2.792-0.563,2.792-2.118c0-1.461-1.272-2.061-2.866-2.061h-1.144L185.832,117.864L185.832,117.864z"/>
		<path fill="#FFFFFF" d="M201.412,113.928h-4.761v3.71h5.324v1.893h-7.628V106.9h7.347v1.893h-5.042v3.26h4.761L201.412,113.928
			L201.412,113.928z"/>
		<path fill="#FFFFFF" d="M214.124,118.95c-0.806,0.3-2.381,0.713-4.067,0.713c-2.136,0-3.749-0.544-4.948-1.687
			c-1.124-1.068-1.779-2.736-1.76-4.647c0-3.992,2.847-6.559,7.027-6.559c1.556,0,2.774,0.318,3.355,0.6l-0.506,1.855
			c-0.693-0.3-1.538-0.543-2.868-0.543c-2.699,0-4.591,1.593-4.591,4.535c0,2.867,1.762,4.572,4.385,4.572
			c0.824,0,1.442-0.112,1.742-0.262v-3.148h-2.229v-1.818h4.461L214.124,118.95L214.124,118.95z"/>
		<path fill="#FFFFFF" d="M218.795,106.9v12.631h-2.305V106.9H218.795z"/>
		<path fill="#FFFFFF" d="M221.441,119.531V106.9h2.625l3.259,5.417c0.845,1.405,1.575,2.867,2.156,4.234h0.036
			c-0.148-1.686-0.206-3.316-0.206-5.248V106.9h2.135v12.631h-2.378l-3.298-5.547c-0.806-1.387-1.65-2.942-2.268-4.366l-0.057,0.019
			c0.094,1.631,0.112,3.298,0.112,5.378v4.516H221.441z"/>
	</g>
</g>
<g>
	<g>
		<path fill="#FFFFFF" d="M203.888,238.15v12.631h-2.305V238.15H203.888z"/>
		<path fill="#FFFFFF" d="M206.534,238.15h7.29v1.893h-4.985v3.486h4.648v1.893h-4.648v5.359h-2.305V238.15z"/>
	</g>
</g>
<g>
	<g>
		<path fill="#FFFFFF" d="M94.066,306.656c-0.545,0.282-1.744,0.563-3.262,0.563c-4.01,0-6.445-2.511-6.445-6.353
			c0-4.161,2.886-6.672,6.745-6.672c1.518,0,2.604,0.319,3.074,0.562l-0.506,1.837c-0.6-0.262-1.423-0.488-2.474-0.488
			c-2.566,0-4.422,1.613-4.422,4.647c0,2.774,1.629,4.555,4.403,4.555c0.937,0,1.911-0.188,2.511-0.469L94.066,306.656z"/>
		<path fill="#FFFFFF" d="M106.758,300.585c0,4.235-2.566,6.652-6.052,6.652c-3.562,0-5.809-2.717-5.809-6.427
			c0-3.88,2.435-6.616,5.997-6.616C104.585,294.194,106.758,296.987,106.758,300.585z M97.332,300.772
			c0,2.567,1.293,4.61,3.504,4.61c2.229,0,3.486-2.061,3.486-4.704c0-2.38-1.181-4.629-3.486-4.629
			C98.55,296.05,97.332,298.168,97.332,300.772z"/>
		<path fill="#FFFFFF" d="M108.751,294.57c1.012-0.169,2.305-0.263,3.674-0.263c2.362,0,3.992,0.487,5.154,1.462
			c1.218,0.992,1.966,2.492,1.966,4.647c0,2.249-0.767,3.935-1.966,5.022c-1.256,1.143-3.262,1.725-5.717,1.725
			c-1.348,0-2.36-0.076-3.111-0.169V294.57z M111.056,305.27c0.32,0.056,0.806,0.056,1.274,0.056
			c2.999,0.019,4.779-1.631,4.779-4.835c0.019-2.792-1.593-4.386-4.479-4.386c-0.73,0-1.254,0.056-1.575,0.132L111.056,305.27
			L111.056,305.27z"/>
		<path fill="#FFFFFF" d="M128.623,301.428h-4.76v3.71h5.323v1.893h-7.628V294.4h7.347v1.893h-5.042v3.26h4.76V301.428z"/>
		<path fill="#FFFFFF" d="M138.188,296.931h-0.037l-2.229,1.124l-0.394-1.742l2.959-1.463h1.932v12.181h-2.231V296.931z"/>
	</g>
</g>
<g>
	<g>
		<path fill="#FFFFFF" d="M187.816,306.656c-0.545,0.282-1.744,0.563-3.262,0.563c-4.01,0-6.445-2.511-6.445-6.353
			c0-4.161,2.886-6.672,6.745-6.672c1.518,0,2.604,0.319,3.074,0.562l-0.506,1.837c-0.6-0.262-1.423-0.488-2.474-0.488
			c-2.566,0-4.422,1.613-4.422,4.647c0,2.774,1.629,4.555,4.403,4.555c0.937,0,1.911-0.188,2.511-0.469L187.816,306.656z"/>
		<path fill="#FFFFFF" d="M200.508,300.585c0,4.235-2.566,6.652-6.052,6.652c-3.562,0-5.809-2.717-5.809-6.427
			c0-3.88,2.435-6.616,5.997-6.616C198.335,294.194,200.508,296.987,200.508,300.585z M191.082,300.772
			c0,2.567,1.293,4.61,3.504,4.61c2.229,0,3.486-2.061,3.486-4.704c0-2.38-1.181-4.629-3.486-4.629
			C192.3,296.05,191.082,298.168,191.082,300.772z"/>
		<path fill="#FFFFFF" d="M202.501,294.57c1.012-0.169,2.305-0.263,3.674-0.263c2.362,0,3.992,0.487,5.154,1.462
			c1.218,0.992,1.966,2.492,1.966,4.647c0,2.249-0.767,3.935-1.966,5.022c-1.256,1.143-3.262,1.725-5.717,1.725
			c-1.348,0-2.36-0.076-3.111-0.169V294.57z M204.806,305.27c0.32,0.056,0.806,0.056,1.274,0.056
			c2.999,0.019,4.779-1.631,4.779-4.835c0.019-2.792-1.593-4.386-4.479-4.386c-0.73,0-1.254,0.056-1.575,0.132L204.806,305.27
			L204.806,305.27z"/>
		<path fill="#FFFFFF" d="M222.373,301.428h-4.76v3.71h5.323v1.893h-7.628V294.4h7.347v1.893h-5.042v3.26h4.76V301.428z"/>
		<path fill="#FFFFFF" d="M228.321,307.031v-1.405l1.444-1.331c2.866-2.661,4.216-4.122,4.234-5.734
			c0-1.086-0.582-2.042-2.174-2.042c-1.069,0-1.987,0.542-2.605,1.012l-0.675-1.631c0.881-0.711,2.211-1.255,3.749-1.255
			c2.698,0,4.01,1.706,4.01,3.692c0,2.137-1.536,3.86-3.655,5.829l-1.066,0.918v0.038h5.003v1.911h-8.265V307.031z"/>
	</g>
</g>
<g>
	<g>
		<path fill="#FFFFFF" d="M155.928,195.281l4.573-13.586h1.611l-4.571,13.586H155.928z"/>
		<path fill="#FFFFFF" d="M162.25,195.281l4.571-13.586h1.611l-4.571,13.586H162.25z"/>
		<path fill="#FFFFFF" d="M182.682,194.156c-0.544,0.282-1.744,0.563-3.261,0.563c-4.01,0-6.445-2.511-6.445-6.353
			c0-4.161,2.886-6.672,6.745-6.672c1.517,0,2.604,0.319,3.074,0.562l-0.506,1.837c-0.6-0.262-1.424-0.488-2.474-0.488
			c-2.568,0-4.422,1.613-4.422,4.647c0,2.774,1.629,4.555,4.403,4.555c0.937,0,1.911-0.188,2.511-0.469L182.682,194.156z"/>
		<path fill="#FFFFFF" d="M195.374,188.085c0,4.235-2.566,6.652-6.052,6.652c-3.562,0-5.809-2.717-5.809-6.427
			c0-3.88,2.435-6.616,5.997-6.616C193.202,181.694,195.374,184.487,195.374,188.085z M185.948,188.272
			c0,2.567,1.293,4.61,3.504,4.61c2.232,0,3.486-2.061,3.486-4.704c0-2.38-1.181-4.629-3.486-4.629
			C187.166,183.55,185.948,185.668,185.948,188.272z"/>
		<path fill="#FFFFFF" d="M208.031,189.378c-0.076-1.631-0.169-3.598-0.151-5.303h-0.055c-0.412,1.537-0.937,3.242-1.5,4.835
			l-1.835,5.471h-1.781l-1.687-5.397c-0.487-1.611-0.938-3.336-1.274-4.91h-0.037c-0.057,1.649-0.133,3.654-0.227,5.377
			l-0.279,5.079h-2.156l0.845-12.631h3.035l1.648,5.079c0.451,1.479,0.845,2.979,1.163,4.385h0.057
			c0.337-1.369,0.767-2.924,1.254-4.405l1.744-5.06h2.999l0.73,12.631h-2.25L208.031,189.378z"/>
		<path fill="#FFFFFF" d="M223.538,189.378c-0.076-1.631-0.169-3.598-0.149-5.303h-0.057c-0.412,1.537-0.937,3.242-1.5,4.835
			l-1.835,5.471h-1.781l-1.687-5.397c-0.487-1.611-0.936-3.336-1.275-4.91h-0.037c-0.057,1.649-0.133,3.654-0.224,5.377
			l-0.282,5.079h-2.156l0.845-12.63h3.035l1.648,5.079c0.451,1.479,0.845,2.979,1.163,4.385h0.057
			c0.336-1.369,0.767-2.924,1.254-4.405l1.744-5.06h2.998l0.73,12.631h-2.25L223.538,189.378z"/>
		<path fill="#FFFFFF" d="M235.446,188.928h-4.761v3.71h5.324v1.893h-7.629V181.9h7.347v1.893h-5.042v3.26h4.761V188.928z"/>
		<path fill="#FFFFFF" d="M238.038,194.531V181.9h2.625l3.259,5.417c0.845,1.405,1.575,2.867,2.156,4.234h0.037
			c-0.149-1.686-0.206-3.316-0.206-5.248V181.9h2.135v12.631h-2.378l-3.298-5.547c-0.806-1.387-1.65-2.942-2.269-4.366l-0.057,0.019
			c0.094,1.631,0.114,3.298,0.114,5.378v4.516H238.038z"/>
		<path fill="#FFFFFF" d="M253.13,183.831h-3.598V181.9h9.54v1.931h-3.635v10.7h-2.307V183.831L253.13,183.831z"/>
	</g>
</g>
<g>
	<g>
		<path fill="#FFFFFF" d="M194.781,362.906c-0.544,0.282-1.744,0.563-3.261,0.563c-4.01,0-6.445-2.511-6.445-6.353
			c0-4.161,2.886-6.672,6.745-6.672c1.518,0,2.604,0.319,3.074,0.562l-0.506,1.837c-0.6-0.262-1.423-0.488-2.474-0.488
			c-2.568,0-4.422,1.613-4.422,4.647c0,2.774,1.629,4.555,4.403,4.555c0.937,0,1.911-0.188,2.511-0.469L194.781,362.906z"/>
		<path fill="#FFFFFF" d="M207.473,356.835c0,4.235-2.566,6.652-6.052,6.652c-3.562,0-5.809-2.717-5.809-6.427
			c0-3.88,2.436-6.616,5.997-6.616C205.3,350.444,207.473,353.237,207.473,356.835z M198.047,357.022c0,2.567,1.293,4.61,3.504,4.61
			c2.232,0,3.486-2.061,3.486-4.704c0-2.38-1.181-4.629-3.486-4.629C199.265,352.3,198.047,354.418,198.047,357.022z"/>
		<path fill="#FFFFFF" d="M209.466,350.82c1.011-0.169,2.305-0.263,3.673-0.263c2.362,0,3.992,0.487,5.154,1.462
			c1.218,0.992,1.966,2.492,1.966,4.647c0,2.249-0.767,3.935-1.966,5.022c-1.256,1.143-3.261,1.725-5.717,1.725
			c-1.348,0-2.36-0.076-3.11-0.169V350.82L209.466,350.82z M211.771,361.52c0.32,0.056,0.806,0.056,1.275,0.056
			c2.998,0.019,4.779-1.631,4.779-4.835c0.019-2.792-1.593-4.386-4.479-4.386c-0.73,0-1.254,0.056-1.575,0.132V361.52z"/>
		<path fill="#FFFFFF" d="M229.337,357.678h-4.761v3.71h5.324v1.893h-7.628V350.65h7.347v1.893h-5.042v3.26h4.761L229.337,357.678
			L229.337,357.678z"/>
	</g>
</g>
<g>
	<g>
		<path fill="#FFFFFF" d="M281.566,306.656c-0.545,0.282-1.744,0.563-3.262,0.563c-4.01,0-6.445-2.511-6.445-6.353
			c0-4.161,2.886-6.672,6.745-6.672c1.518,0,2.604,0.319,3.074,0.562l-0.506,1.837c-0.6-0.262-1.423-0.488-2.474-0.488
			c-2.566,0-4.422,1.613-4.422,4.647c0,2.774,1.629,4.555,4.403,4.555c0.937,0,1.911-0.188,2.511-0.469L281.566,306.656z"/>
		<path fill="#FFFFFF" d="M294.258,300.585c0,4.235-2.566,6.652-6.052,6.652c-3.562,0-5.809-2.717-5.809-6.427
			c0-3.88,2.435-6.616,5.997-6.616C292.085,294.194,294.258,296.987,294.258,300.585z M284.832,300.772
			c0,2.567,1.293,4.61,3.504,4.61c2.229,0,3.486-2.061,3.486-4.704c0-2.38-1.181-4.629-3.486-4.629
			C286.05,296.05,284.832,298.168,284.832,300.772z"/>
		<path fill="#FFFFFF" d="M296.251,294.57c1.012-0.169,2.305-0.263,3.674-0.263c2.362,0,3.992,0.487,5.154,1.462
			c1.218,0.992,1.966,2.492,1.966,4.647c0,2.249-0.767,3.935-1.966,5.022c-1.256,1.143-3.262,1.725-5.717,1.725
			c-1.348,0-2.36-0.076-3.111-0.169V294.57z M298.556,305.27c0.32,0.056,0.806,0.056,1.274,0.056
			c2.999,0.019,4.779-1.631,4.779-4.835c0.018-2.792-1.593-4.386-4.479-4.386c-0.73,0-1.254,0.056-1.575,0.132L298.556,305.27
			L298.556,305.27z"/>
		<path fill="#FFFFFF" d="M316.123,301.428h-4.76v3.71h5.32v1.893h-7.628V294.4h7.35v1.893h-5.042v3.26h4.76V301.428
			L316.123,301.428z"/>
		<path fill="#FFFFFF" d="M322.541,304.651c0.467,0.282,1.611,0.75,2.774,0.75c1.76,0,2.472-0.992,2.451-1.949
			c0-1.442-1.348-2.061-2.754-2.061h-1.064v-1.687h1.027c1.069,0,2.417-0.486,2.417-1.705c0-0.824-0.614-1.518-1.945-1.518
			c-0.993,0-1.986,0.432-2.492,0.768l-0.524-1.667c0.694-0.488,2.042-0.938,3.504-0.938c2.514,0,3.807,1.387,3.807,2.98
			c0,1.274-0.75,2.323-2.25,2.849v0.038c1.479,0.262,2.681,1.386,2.681,3.035c0,2.063-1.724,3.692-4.74,3.692
			c-1.479,0-2.756-0.412-3.413-0.844L322.541,304.651z"/>
	</g>
</g>
<g>
	<path fill="#FFFFFF" d="M198.326,432.678h-4.76v3.71h5.324v1.896h-7.629V425.65h7.347v1.893h-5.042v3.26h4.76V432.678z"/>
	<path fill="#FFFFFF" d="M200.917,438.281V425.65h2.625l3.259,5.417c0.845,1.401,1.575,2.863,2.156,4.23h0.037
		c-0.149-1.686-0.206-3.313-0.206-5.248v-4.399h2.135v12.631h-2.378l-3.298-5.547c-0.806-1.391-1.65-2.942-2.269-4.366l-0.057,0.019
		c0.094,1.631,0.114,3.299,0.114,5.378v4.52L200.917,438.281L200.917,438.281z"/>
	<path fill="#FFFFFF" d="M213.593,425.82c1.012-0.169,2.305-0.267,3.674-0.267c2.362,0,3.991,0.487,5.154,1.462
		c1.217,0.992,1.966,2.492,1.966,4.647c0,2.249-0.767,3.935-1.966,5.021c-1.257,1.145-3.262,1.727-5.717,1.727
		c-1.348,0-2.36-0.076-3.111-0.169V425.82L213.593,425.82z M215.897,436.52c0.32,0.06,0.806,0.06,1.275,0.06
		c2.998,0.019,4.779-1.631,4.779-4.835c0.018-2.792-1.593-4.386-4.479-4.386c-0.73,0-1.254,0.056-1.575,0.132V436.52z"/>
</g>
<rect x="127.813" y="496.875" fill="#FFFFFF" width="9.375" height="121.875"/>
<rect x="845" y="562.5" fill="#144261" width="168.75" height="9.375"/>
<path fill="#FB9101" d="M322.674,376.278c-7.271-1.948-14.886,0.118-21.424,5.015c-6.538-4.897-14.153-6.963-21.424-5.015
	c-15.004,4.02-22.821,23.5-17.461,43.501c5.36,20.004,21.869,32.963,36.872,28.939c0.692-0.186,1.352-0.438,2.013-0.688
	c0.661,0.25,1.321,0.502,2.013,0.688c15,4.021,31.512-8.938,36.872-28.939C345.495,399.774,337.678,380.298,322.674,376.278z"/>
<path d="M327.858,345.335c0.573,7.644-1.541,14.799-6.632,19.887c-5.088,5.088-12.241,7.206-19.887,6.629
	c-0.577-7.644,1.541-14.799,6.629-19.887S320.215,344.759,327.858,345.335z"/>
<path fill="#FDC00F" d="M279.826,376.278c-15.004,4.02-22.821,23.5-17.461,43.501c5.36,20.004,21.869,32.963,36.872,28.939
	c0.692-0.186,1.352-0.438,2.013-0.688V381.29C294.712,376.396,287.097,374.33,279.826,376.278z"/>
<path fill="#1E597E" d="M307.971,351.965c-5.088,5.087-7.205,12.243-6.629,19.887l26.52-26.517
	C320.215,344.759,313.059,346.877,307.971,351.965z"/>
<rect x="376.25" y="637.5" width="37.5" height="60.938"/>
<polygon fill="#FDC00F" points="376.25,698.438 376.25,703.125 380.938,703.125 380.938,712.5 409.063,712.5 409.063,703.125 
	413.75,703.125 413.75,698.438 "/>
<rect x="376.25" y="581.25" fill="#FDC00F" width="37.5" height="56.25"/>
<rect x="380.938" y="703.125" fill="#FB9101" width="28.125" height="4.688"/>
<rect x="390.313" y="651.563" fill="#FDC00F" width="9.375" height="32.813"/>
<path fill="#1E597E" d="M1093.18,849.141c0.164-1.777,0.262-3.563,0.262-5.391s-0.098-3.609-0.262-5.391l-9.586-0.914
	c-0.539-4.008-1.547-7.854-3.047-11.461l7.828-5.559c-1.5-3.305-3.328-6.422-5.414-9.352l-8.742,4.008
	c-2.438-3.141-5.227-5.93-8.363-8.367l4.008-8.742c-2.934-2.086-6.047-3.913-9.354-5.413l-5.555,7.827
	c-3.609-1.5-7.453-2.508-11.461-3.047l-0.914-9.586c-1.781-0.164-3.563-0.258-5.391-0.258c-1.828,0-3.609,0.094-5.395,0.258
	l-0.914,9.586c-4.008,0.539-7.852,1.547-11.461,3.047l-5.555-7.827c-3.305,1.5-6.422,3.327-9.354,5.413l4.012,8.742
	c-3.145,2.438-5.934,5.229-8.367,8.367l-8.742-4.008c-2.086,2.93-3.914,6.047-5.414,9.352l7.828,5.559
	c-1.5,3.605-2.508,7.453-3.047,11.461l-9.586,0.914c-0.164,1.777-0.258,3.563-0.258,5.391s0.094,3.609,0.258,5.391l9.586,0.914
	c0.539,4.008,1.547,7.854,3.047,11.461L986,867.07c1.5,3.305,3.328,6.422,5.414,9.352l8.742-4.008
	c2.438,3.141,5.227,5.93,8.367,8.367l-4.012,8.742c2.934,2.086,6.051,3.914,9.354,5.414l5.555-7.828
	c3.609,1.5,7.453,2.508,11.461,3.047l0.914,9.586c1.781,0.164,3.563,0.258,5.392,0.258c1.827,0,3.608-0.094,5.394-0.258l0.914-9.586
	c4.008-0.539,7.852-1.547,11.461-3.047l5.555,7.828c3.309-1.5,6.423-3.328,9.354-5.414l-4.008-8.742
	c3.141-2.438,5.93-5.229,8.363-8.367l8.742,4.008c2.086-2.93,3.914-6.047,5.414-9.352l-7.828-5.559
	c1.5-3.605,2.508-7.452,3.047-11.461L1093.18,849.141z M1037.188,862.5c-10.355,0-18.75-8.391-18.75-18.75s8.395-18.75,18.75-18.75
	c10.359,0,18.75,8.391,18.75,18.75S1047.547,862.5,1037.188,862.5z"/>
<circle fill="#1E597E" cx="1037.188" cy="843.75" r="4.688"/>
<path fill="#1E597E" d="M1060.625,337.5l-9.375,9.375V412.5h75v-75H1060.625z"/>
<rect x="1070" y="337.5" width="37.5" height="18.75"/>
<rect x="1070" y="337.5" fill="#FFFFFF" width="28.125" height="18.75"/>
<rect x="1074.688" y="342.188" width="4.688" height="9.375"/>
<path fill="#FFFFFF" d="M1114.875,365.625h-52.25c-1.104,0-2,0.896-2,2V412.5h56.25v-44.875
	C1116.875,366.521,1115.979,365.625,1114.875,365.625z"/>
<rect x="1060.625" y="403.125" fill="#FDC00F" width="56.25" height="9.375"/>
<rect x="1070" y="392.578" fill="#FDC00F" width="37.5" height="2.344"/>
<rect x="1070" y="383.203" fill="#FDC00F" width="37.5" height="2.344"/>
<rect x="1070" y="373.828" fill="#FDC00F" width="37.5" height="2.344"/>
<rect x="1051.25" y="412.5" width="9.375" height="4.688"/>
<rect x="1116.875" y="412.5" width="9.375" height="4.688"/>
<rect x="1119.219" y="405.469" width="4.688" height="4.688"/>
<rect x="1060.625" y="412.5" fill="#FB9101" width="56.25" height="4.688"/>
<path fill="#FFFFFF" d="M329.375,131.25c-7.754,0-14.063,6.308-14.063,14.063v23.438c0,2.589,2.099,4.688,4.688,4.688
	s4.688-2.099,4.688-4.688v-23.438c0-2.585,2.104-4.688,4.688-4.688s4.688,2.103,4.688,4.688v23.438c0,2.589,2.099,4.688,4.688,4.688
	s4.688-2.099,4.688-4.688v-23.438C343.438,137.558,337.129,131.25,329.375,131.25z"/>
<g>
	<g>
		<path d="M910.625,414.844v4.688h-18.75v-4.688H910.625 M912.969,412.5h-23.438v9.375h23.438V412.5L912.969,412.5z"/>
	</g>
	<rect x="880.156" y="494.531" width="42.188" height="9.375"/>
	<rect x="880.156" y="508.594" width="42.188" height="9.375"/>
	<rect x="882.5" y="487.5" fill="#1E597E" width="37.5" height="37.5"/>
	<path fill="#A6DAE8" d="M882.5,487.5L882.5,487.5c6.003-6.003,9.375-14.144,9.375-22.633v-47.68h18.75v47.68
		c0,8.489,3.372,16.63,9.375,22.633l0,0H882.5z"/>
	<path fill="#A6DAE8" d="M882.5,525L882.5,525c6.003,6.003,9.375,14.144,9.375,22.633v47.68c0,2.592,2.099,4.688,4.688,4.688h9.375
		c2.593,0,4.688-2.099,4.688-4.688v-47.68c0-8.489,3.372-16.63,9.375-22.633l0,0H882.5z"/>
	<rect x="887.188" y="492.188" fill="#FDC00F" width="28.125" height="28.125"/>
	<circle cx="901.25" cy="576.563" r="2.344"/>
	<circle cx="901.25" cy="562.5" r="2.344"/>
	<circle cx="901.25" cy="548.438" r="2.344"/>
	<rect x="887.188" y="426.563" fill="#A6DAE8" width="28.125" height="9.375"/>
	<rect x="891.875" y="435.938" fill="#6CBAD3" width="18.75" height="4.688"/>
	<g>
		
			<line fill="none" stroke="#000000" stroke-width="2.3438" stroke-miterlimit="10" x1="901.25" y1="412.5" x2="901.25" y2="421.875"/>
	</g>
	<g>
		<path fill="#FFFFFF" d="M892.264,503.173c0.996,0,1.222-0.479,1.42-1.032h0.867v8.211h-1.291v-6.265h-0.996V503.173z"/>
		<path fill="#FFFFFF" d="M895.768,504.111c0-1.314,0.692-2.065,1.961-2.065s1.959,0.751,1.959,2.065v4.27
			c0,1.314-0.69,2.064-1.959,2.064s-1.961-0.75-1.961-2.064V504.111z M897.059,508.463c0,0.586,0.261,0.813,0.67,0.813
			c0.408,0,0.671-0.227,0.671-0.813v-4.435c0-0.586-0.263-0.813-0.671-0.813c-0.409,0-0.67,0.227-0.67,0.813V508.463z"/>
		<path fill="#FFFFFF" d="M901.758,504.639v1.244h-1.242v-1.244H901.758z M901.758,509.109v1.239h-1.242v-1.239H901.758z"/>
		<path fill="#FFFFFF" d="M902.39,507.688l2.35-5.548h1.405v5.548h0.607v1.177h-0.607v1.486h-1.27v-1.486h-2.485V507.688
			L902.39,507.688z M904.875,507.688v-3.084l-1.302,3.084H904.875z"/>
		<path fill="#FFFFFF" d="M908.496,507.701v0.762c0,0.586,0.259,0.797,0.669,0.797c0.411,0,0.67-0.211,0.67-0.797v-1.807
			c0-0.586-0.259-0.813-0.67-0.813c-0.41,0-0.669,0.227-0.669,0.813v0.246h-1.22l0.231-4.766h3.401v1.173h-2.24l-0.104,1.96
			c0.231-0.388,0.607-0.599,1.126-0.599c0.946,0,1.431,0.668,1.431,1.876v1.83c0,1.314-0.657,2.064-1.923,2.064
			c-1.271,0-1.925-0.75-1.925-2.064v-0.68L908.496,507.701L908.496,507.701z"/>
	</g>
</g>
<rect x="845" y="206.25" fill="#1E597E" width="187.5" height="9.375"/>
<rect x="432.5" y="300" fill="#0A2135" width="145.313" height="178.125"/>
<rect x="413.75" y="496.875" fill="#6CBAD3" width="356.25" height="18.75"/>
<rect x="413.75" y="496.875" fill="#A6DAE8" width="37.5" height="18.75"/>
<rect x="418.438" y="501.563" width="9.375" height="9.375"/>
<rect x="755.938" y="501.563" width="9.375" height="9.375"/>
<rect x="741.875" y="501.563" width="9.375" height="9.375"/>
<rect x="432.5" y="300" width="145.313" height="18.75"/>
<g>
	<rect x="564.922" y="305.859" fill="#FFFFFF" width="7.031" height="7.031"/>
	<rect x="555.547" y="305.859" fill="#FFFFFF" width="7.031" height="7.031"/>
</g>
<rect x="441.875" y="328.125" fill="#144261" width="65.625" height="4.688"/>
<rect x="441.875" y="337.5" fill="#144261" width="65.625" height="4.688"/>
<rect x="441.875" y="356.25" fill="#14B0BF" width="9.375" height="4.688"/>
<rect x="460.625" y="393.75" fill="#14B0BF" width="9.375" height="4.688"/>
<rect x="441.875" y="365.625" fill="#14B0BF" width="9.375" height="4.688"/>
<rect x="441.875" y="384.375" fill="#FDC00F" width="14.063" height="4.688"/>
<rect x="455.938" y="356.25" fill="#F8F8F2" width="32.813" height="4.688"/>
<rect x="474.688" y="393.75" fill="#F8F8F2" width="32.813" height="4.688"/>
<rect x="460.625" y="403.125" fill="#14B0BF" width="9.375" height="4.688"/>
<rect x="474.688" y="403.125" fill="#F8F8F2" width="32.813" height="4.688"/>
<rect x="460.625" y="421.875" fill="#F8F8F2" width="32.813" height="4.688"/>
<rect x="460.625" y="431.25" fill="#F8F8F2" width="32.813" height="4.688"/>
<rect x="441.875" y="440.625" fill="#F8F8F2" width="4.688" height="4.688"/>
<rect x="498.125" y="431.25" fill="#FDC00F" width="4.688" height="4.688"/>
<rect x="498.125" y="421.875" fill="#FDC00F" width="4.688" height="4.688"/>
<rect x="455.938" y="365.625" fill="#F8F8F2" width="51.563" height="4.688"/>
<rect x="460.625" y="384.375" fill="#F8F8F2" width="28.125" height="4.688"/>
<rect x="507.5" y="421.875" fill="#F8F8F2" width="18.75" height="4.688"/>
<rect x="507.5" y="431.25" fill="#F8F8F2" width="9.375" height="4.688"/>
<rect x="568.438" y="323.438" fill="#144261" width="4.688" height="150"/>
<rect x="596.563" y="342.188" fill="#FFFFFF" width="150" height="93.75"/>
<rect x="596.563" y="342.188" width="150" height="18.75"/>
<g>
	<rect x="733.672" y="348.047" fill="#FFFFFF" width="7.031" height="7.031"/>
	<rect x="724.297" y="348.047" fill="#FFFFFF" width="7.031" height="7.031"/>
</g>
<rect x="634.063" y="393.75" fill="none" stroke="#202020" stroke-width="2.3438" stroke-miterlimit="10" width="75" height="9.375"/>
<rect x="652.813" y="407.813" fill="#A6DAE8" stroke="#FFFFFF" stroke-width="2.3438" stroke-miterlimit="10" width="18.75" height="9.375"/>
<rect x="671.563" y="407.813" fill="#A6DAE8" stroke="#FFFFFF" stroke-width="2.3438" stroke-miterlimit="10" width="18.75" height="9.375"/>
<rect x="652.813" y="379.688" fill="#EA4335" stroke="#FFFFFF" stroke-width="2.3438" stroke-miterlimit="10" width="9.375" height="9.375"/>
<rect x="662.188" y="379.688" fill="#FBBC05" stroke="#FFFFFF" stroke-width="2.3438" stroke-miterlimit="10" width="9.375" height="9.375"/>
<rect x="671.563" y="379.688" fill="#34A853" stroke="#FFFFFF" stroke-width="2.3438" stroke-miterlimit="10" width="9.375" height="9.375"/>
<rect x="680.938" y="379.688" fill="#4285F4" stroke="#FFFFFF" stroke-width="2.3438" stroke-miterlimit="10" width="9.375" height="9.375"/>
<rect x="207.5" y="600" fill="#FDC00F" width="28.125" height="28.125"/>
<rect x="245" y="651.563" fill="#A6DAE8" width="28.125" height="4.688"/>
<rect x="245" y="642.188" fill="#A6DAE8" width="28.125" height="4.688"/>
<rect x="245" y="632.813" fill="#A6DAE8" width="28.125" height="4.688"/>
<rect x="245" y="600" fill="#00B1CD" width="28.125" height="28.125"/>
<rect x="282.5" y="651.563" fill="#A6DAE8" width="14.063" height="4.688"/>
<rect x="282.5" y="642.188" fill="#A6DAE8" width="28.125" height="4.688"/>
<rect x="282.5" y="632.813" fill="#A6DAE8" width="28.125" height="4.688"/>
<rect x="282.5" y="600" width="28.125" height="28.125"/>
<g>
	<rect x="573.125" y="646.875" width="103.125" height="9.375"/>
	<path fill="#FFFFFF" d="M554.375,656.25H546c-0.552,0-1-0.447-1-1v-7.375c0-0.553,0.448-1,1-1h8.375V656.25z"/>
	<rect x="554.375" y="646.875" fill="#144261" width="18.75" height="9.375"/>
	<polygon fill="#FFFFFF" points="685.625,649.219 685.625,653.906 676.25,656.25 676.25,646.875 	"/>
	<polygon points="685.625,653.906 695,651.563 685.625,649.219 	"/>
	<rect x="556.719" y="646.875" width="2.344" height="9.375"/>
	<rect x="568.438" y="646.875" width="2.348" height="9.375"/>
</g>
<g>
	<rect x="573.125" y="632.813" width="103.125" height="9.375"/>
	<path fill="#FFFFFF" d="M554.375,642.188H546c-0.552,0-1-0.443-1-1v-7.375c0-0.553,0.448-1,1-1h8.375V642.188z"/>
	<rect x="554.375" y="632.813" fill="#144261" width="18.75" height="9.375"/>
	<polygon fill="#FFFFFF" points="685.625,635.156 685.625,639.844 676.25,642.188 676.25,632.813 	"/>
	<polygon points="685.625,639.844 695,637.5 685.625,635.156 	"/>
	<rect x="556.719" y="632.813" width="2.344" height="9.375"/>
	<rect x="568.438" y="632.813" width="2.348" height="9.375"/>
</g>
<rect x="657.5" y="618.75" width="37.5" height="9.375"/>
<circle fill="#FFFFFF" cx="657.5" cy="609.375" r="9.375"/>
<rect x="657.5" y="600" fill="#0A2135" width="37.5" height="18.75"/>
<path fill="#C8C8C8" d="M657.5,628.125h-7.375c-1.104,0-2-0.896-2-2v-14.75c0-1.104,0.896-2,2-2h7.375V628.125z"/>
<path fill="#FFFFFF" d="M657.5,618.75h-7.375c-1.104,0-2-0.896-2-2V602c0-1.104,0.896-2,2-2h7.375V618.75z"/>
<g>
	<rect x="554.375" y="220.313" fill="#6CBAD3" width="93.75" height="4.688"/>
	<rect x="554.375" y="201.563" fill="#6CBAD3" width="93.75" height="4.688"/>
	<rect x="535.625" y="150" fill="#0A2135" width="18.75" height="51.563"/>
	<polygon points="554.375,201.563 554.375,206.25 540.313,206.25 540.313,220.313 554.375,220.313 554.375,225 535.625,225 
		535.625,201.563 	"/>
	<rect x="554.375" y="150" fill="#A6DAE8" width="93.75" height="51.563"/>
	<rect x="540.313" y="206.25" fill="#469FC0" width="107.813" height="14.063"/>
	<rect x="540.313" y="206.25" fill="#FFFFFF" width="103.125" height="9.375"/>
	<rect x="545" y="210.938" fill="#FDC00F" width="4.688" height="18.75"/>
</g>
<path fill="#1E597E" d="M1037.188,855.469c-6.461,0-11.719-5.258-11.719-11.719s5.258-11.719,11.719-11.719
	c6.465,0,11.723,5.258,11.723,11.719S1043.648,855.469,1037.188,855.469z M1037.188,836.719c-3.877,0-7.027,3.154-7.027,7.031
	s3.15,7.031,7.027,7.031c3.881,0,7.031-3.154,7.031-7.031S1041.064,836.719,1037.188,836.719z"/>
<rect x="720.781" y="794.531" fill="#FDC00F" width="4.688" height="4.688"/>
<rect x="702.031" y="794.531" fill="#FDC00F" width="4.688" height="4.688"/>
<rect x="683.281" y="794.531" width="4.688" height="4.688"/>
<circle fill="none" stroke="#214255" stroke-width="4.6875" stroke-miterlimit="10" cx="1037.188" cy="843.75" r="32.813"/>
<rect x="1088.75" y="548.438" fill="#FB9101" width="9.375" height="4.688"/>
<polygon fill="#469FC0" points="549.688,210.938 554.375,215.625 554.375,220.313 559.063,225 549.688,225 "/>
<rect x="327.031" y="187.5" fill="#FDC00F" width="4.688" height="9.375"/>
<g>
	<polygon fill="#FFFFFF" points="601.25,168.75 596.563,168.75 596.563,173.438 591.875,173.438 591.875,178.125 596.563,178.125 
		596.563,182.813 601.25,182.813 601.25,178.125 605.938,178.125 605.938,173.438 601.25,173.438 	"/>
	<polygon fill="#FFFFFF" points="624.688,173.438 620,173.438 620,168.75 615.313,168.75 615.313,173.438 610.625,173.438 
		610.625,178.125 615.313,178.125 615.313,182.813 620,182.813 620,178.125 624.688,178.125 	"/>
	<rect x="582.5" y="164.063" fill="#FFFFFF" width="4.688" height="4.688"/>
	<polygon fill="#FFFFFF" points="587.188,178.125 587.188,173.438 582.5,173.438 577.813,173.438 577.813,178.125 582.5,178.125 
		582.5,182.813 577.813,182.813 577.813,187.5 582.5,187.5 587.188,187.5 591.875,187.5 591.875,182.813 587.188,182.813 	"/>
</g>
</svg>
